<?xml version="1.0" encoding="utf-8"?>
<!-- Generator: Adobe Illustrator 19.2.1, SVG Export Plug-In . SVG Version: 6.00 Build 0)  -->
<svg version="1.1" id="Ebene_2" xmlns="http://www.w3.org/2000/svg" xmlns:xlink="http://www.w3.org/1999/xlink" x="0px" y="0px"
	 viewBox="0 0 122 100" style="enable-background:new 0 0 122 100;" xml:space="preserve">
<style type="text/css">
	.st0{fill:#FFFFFF;}
	.st1{fill:#E4DADA;}
	.st2{fill:#E30613;}
	.st3{fill:#EF7D00;}
</style>
<path class="st0" d="M0,0l0,58.6c9.9,23.9,33.5,40.9,61,40.9s51.1-16.9,61-40.9V0H0z"/>
<path class="st1" d="M61,99C33.2,99,9.5,81.7,0,57.3V60c10.2,23.5,33.7,40,61,40s50.8-16.5,61-40v-2.6C112.5,81.7,88.8,99,61,99z"/>
<g>
	<g>
		<g>
			<path class="st2" d="M68.9,14.8c-2.5,0-4.2,1.2-4.2,2.9c0,1.7,1.7,2.8,4.1,2.8c2.5,0,4.2-1.1,4.2-2.9
				C73.1,16,71.4,14.8,68.9,14.8z"/>
			<path class="st2" d="M56.2,20.6c-2,0-3.6,0.6-5.2,1.9v-2.1c-2.2,0.7-4.7,1.3-7.3,1.6v21.5c0,0,0,0,0,0l0,3.8
				c2-2.3,4.6-4.2,7.4-5.6c0,0,0-5.8,0-5.8c1.4,1.1,2.5,1.5,4.4,1.5c4.6,0,7.7-3.5,7.7-8.8C63.2,23.8,60.4,20.6,56.2,20.6z
				 M53.1,32.5c-0.7,0-1.3-0.1-2-0.5v-5.6c0.7-0.4,1.3-0.6,2-0.6c1.7,0,2.7,1.4,2.7,3.4C55.8,31,54.7,32.5,53.1,32.5z"/>
			<path class="st2" d="M65.2,22.4v15.3h7.3v-16c-0.9,0.6-2.2,1-3.9,1.1C67.3,22.9,66.1,22.7,65.2,22.4z"/>
			<path class="st2" d="M16.3,14.7l-7.9,23h7.8l1.5-4.9h6.2l1.3,4.9h8l-7.3-23H16.3z M18.8,28.3l2.1-8l1.9,8H18.8z"/>
			<path class="st2" d="M106.8,20.4c-1.9,0-3.9,0.2-5.8,0.6c-1.5,0.3-2.2,0.5-4,1.1l1.4,3.9c2.3-0.7,4.6-1.1,6.3-1
				c3.3,0,2.3,2.4,2.3,2.4s-1.2-0.1-1.9-0.1c-6.8,0-9.2,1.5-9.2,5.5c0,3.3,2.1,5.1,5.8,5.1c1.9,0,3.4-0.4,4.4-1.2
				c0.2-0.1,0.5-0.3,0.7-0.7l0,1.7h6.7V27.4C113.6,22.2,111.9,20.4,106.8,20.4z M106.9,33.5c-0.7,0.2-1.3,0.3-2,0.3
				c-1.6,0-2.4-0.5-2.4-1.5c0-1.2,1-1.7,3.3-1.7c0.1,0,1.1,0,1.1,0V33.5z"/>
			<path class="st2" d="M93,21.7c-0.9-0.8-2.3-1.2-3.9-1.2c-1.4,0-2.5,0.2-4,0.9c-1.2,0.5-1.6,0.7-2.6,1.5v-2.2l-7.1,1v16.2h7.2v-11
				c0.8-0.7,1.7-1.1,2.7-1.1c1.4,0,1.8,0.6,1.8,2.8v9.3h7.3V26.5C94.3,23.5,94.1,22.7,93,21.7z"/>
			<path class="st2" d="M34.2,14.6L34.2,14.6l0,23.1h7.2l0-25.3C39.4,13.5,36.9,14.3,34.2,14.6L34.2,14.6z"/>
		</g>
	</g>
	<path class="st3" d="M61.2,41.3c-12.1,0-21.8,9.8-21.8,21.8c0,12,9.8,21.8,21.8,21.8c12.1,0,21.8-9.8,21.8-21.8
		C83,51.1,73.3,41.3,61.2,41.3z M61.2,76.1c-7.2,0-13-5.8-13-13c0-7.2,5.8-13,13-13c7.2,0,13,5.8,13,13
		C74.2,70.3,68.4,76.1,61.2,76.1z"/>
	<path class="st2" d="M61.2,50.1c-7.2,0-13,5.8-13,13c0,7.2,5.8,13,13,13c7.2,0,13-5.8,13-13C74.2,55.9,68.4,50.1,61.2,50.1z
		 M61.2,68.7c-3.1,0-5.6-2.5-5.6-5.6c0-3.1,2.5-5.6,5.6-5.6c3.1,0,5.6,2.5,5.6,5.6C66.8,66.2,64.3,68.7,61.2,68.7z"/>
	<circle class="st0" cx="61.2" cy="63.1" r="5.6"/>
</g>
</svg>
